<svg viewBox="0 0 694 691" fill="none" xmlns="http://www.w3.org/2000/svg">
<g style="mix-blend-mode:luminosity" opacity="0.4">
<path d="M443.195 544.065C365.183 590.371 349.965 659.513 347.029 682.877C344.092 659.513 328.874 590.318 250.862 544.065C155.763 487.633 3.26367 486.578 3.26367 486.578C3.26367 486.578 5.02575 577.027 100.124 633.512C189.937 686.779 330.796 690.682 346.281 690.999C346.281 690.999 346.548 690.999 346.975 690.999C347.402 690.999 347.669 690.999 347.669 690.999C363.154 690.735 504.013 686.832 593.826 633.512C688.924 577.08 690.687 486.578 690.687 486.578C690.687 486.578 538.24 487.633 443.088 544.065H443.195Z" fill="currentColor"/>
<path d="M50.5709 396.828H111.229V497.35C157.096 505.42 209.371 519.501 250.807 544.078C328.819 590.384 344.037 659.526 346.973 682.89C349.91 659.526 365.128 590.331 443.14 544.078C485.483 518.974 539.093 504.839 585.654 496.876V396.881H643.429C688.229 396.881 710.815 343.56 679.365 312.022L382.962 14.8844C363.206 -4.94585 330.848 -4.94585 311.038 14.8844L14.6353 312.022C-16.8151 343.508 5.77151 396.881 50.5709 396.881V396.828Z" fill="currentColor"/>
<path d="M493.393 396.793C493.393 378.914 465.734 364.41 431.561 364.41C429.478 364.41 427.396 364.516 425.367 364.78C426.969 363.514 428.517 362.143 430.012 360.719C454.147 336.88 463.331 307.293 450.516 294.635C437.701 281.978 407.746 291.049 383.611 314.888C382.116 316.364 380.781 317.894 379.499 319.476C379.713 317.472 379.873 315.415 379.873 313.358C379.873 279.604 365.189 252.285 347.088 252.285C328.987 252.285 314.303 279.604 314.303 313.358C314.303 315.415 314.409 317.472 314.676 319.476C313.395 317.894 312.007 316.364 310.565 314.888C286.43 291.049 256.474 281.978 243.659 294.635C230.844 307.293 240.028 336.88 264.164 360.719C265.659 362.195 267.207 363.514 268.809 364.78C266.78 364.569 264.697 364.41 262.615 364.41C228.441 364.41 200.782 378.914 200.782 396.793C200.782 414.672 228.441 429.175 262.615 429.175C264.697 429.175 266.78 429.07 268.809 428.806C267.207 430.072 265.659 431.443 264.164 432.867C240.028 456.706 230.844 486.293 243.659 498.95C256.474 511.608 286.43 502.537 310.565 478.698C312.06 477.221 313.395 475.692 314.676 474.11C314.463 476.114 314.303 478.171 314.303 480.228C314.303 513.981 328.987 541.301 347.088 541.301C365.189 541.301 379.873 513.981 379.873 480.228C379.873 478.171 379.766 476.114 379.499 474.11C380.781 475.692 382.169 477.221 383.611 478.698C407.746 502.537 437.701 511.608 450.516 498.95C463.331 486.293 454.147 456.706 430.012 432.867C428.517 431.39 426.969 430.072 425.367 428.806C427.396 429.017 429.478 429.175 431.561 429.175C465.734 429.175 493.393 414.672 493.393 396.793Z" fill="currentColor"/>
</g>
</svg>